<svg id="Calque_1" data-name="Calque 1" xmlns="http://www.w3.org/2000/svg" xmlns:xlink="http://www.w3.org/1999/xlink" viewBox="0 0 57.07 57.07"><defs><style>.cls-1{fill:#fff;}.cls-2{fill:#1d1d1b;}.cls-3{fill:#9ac43a;}.cls-4{fill:url(#Dégradé_sans_nom_139);}.cls-5{fill:url(#Dégradé_sans_nom_139-2);}.cls-6{fill:url(#Dégradé_sans_nom_139-3);}.cls-7{fill:url(#Dégradé_sans_nom_216);}</style><linearGradient id="Dégradé_sans_nom_139" x1="6.01" y1="37.28" x2="51.24" y2="37.77" gradientUnits="userSpaceOnUse"><stop offset="0.1" stop-color="#a32523"/><stop offset="0.52" stop-color="#e30613"/><stop offset="0.66" stop-color="#c94417"/><stop offset="0.82" stop-color="#ad871b"/><stop offset="0.94" stop-color="#9cb11e"/><stop offset="1" stop-color="#95c11f"/></linearGradient><linearGradient id="Dégradé_sans_nom_139-2" x1="6.03" y1="35.27" x2="51.26" y2="35.75" xlink:href="#Dégradé_sans_nom_139"/><linearGradient id="Dégradé_sans_nom_139-3" x1="6.01" y1="37.12" x2="51.24" y2="37.6" xlink:href="#Dégradé_sans_nom_139"/><linearGradient id="Dégradé_sans_nom_216" x1="6.03" y1="35.44" x2="51.26" y2="35.93" gradientUnits="userSpaceOnUse"><stop offset="0" stop-color="#a32523"/><stop offset="0.46" stop-color="#e30613"/><stop offset="0.66" stop-color="#95c11f"/><stop offset="0.99" stop-color="#335c14"/></linearGradient></defs><title>logo_hellowelo</title><circle class="cls-1" cx="28.98" cy="28.86" r="28.54" transform="translate(-9.28 12.96) rotate(-22.5)"/><path class="cls-2" d="M47.87,7.48a90.4,90.4,0,0,0-4.64,8.22c-4.16,8.09-4.42,10.12-4.75,11.1s-1.06,1.5-1.68.68-.38-2.57.53-4.58,4.84-11.95,7.32-16l.83-1.34c-.48-.34-1-.68-1.48-1-1,1.85-5.08,8.55-7.76,14-2.92,6.08-3.1,7.88-3.19,8.35s-.18,1-.8.89-1.74-1.18-.88-4,6.37-13.4,7.52-15.62a49.69,49.69,0,0,1,2.71-5A28.55,28.55,0,0,0,15,4a2.65,2.65,0,0,1,.85.34c.45.23.83.91.62,1.24s-6,10.44-7.58,15c2.12-2.51,6.58-5.31,8-5.22s2,1.06,1.24,2.74-1.07,2.48-.15,2.21A22.64,22.64,0,0,0,22.07,18c1-.62.56,1-1.24,2.63s-3.13,2.89-4.75,2.66-1.86-2.93-.83-4.67c-.44-.29-3,1.18-4.95,3.28s-3.25,3.51-4.08,3.42-1.5-2.48-1-3.33,5.08-9.89,6.37-12.25a48.57,48.57,0,0,0,2.56-5.25,28.54,28.54,0,1,0,33.75,3ZM24,23.91a2.07,2.07,0,0,1-2.74-2.37,11.59,11.59,0,0,1,3-5.13c1.5-1.42,2.74-1.62,3.36-1.54.83.09,2,1.45,2.13,2.66s-1.72,2.18-2.9,2.74-2.15,1.27-2.92,0c-.23.33-.74,1.33.8,1.24a21.15,21.15,0,0,0,7.05-2.48c2-1.18,1.15.57.3,1.13A46.47,46.47,0,0,1,24,23.91Zm21.19-.54C43.23,23,43.2,20.57,44,19.45s2.51-3.31,3.57-3.54l.33-.09a1,1,0,0,0-.33-.36c-.94-.76.3-.65.77-.32s3,2.12,2.33,4.52S47.07,23.79,45.15,23.37Z" transform="translate(-0.44 -0.32)"/><path class="cls-2" d="M46.42,20.51c-.06.35,1.12-.15,1.68-.94a2.56,2.56,0,0,0,.33-1.42A11.2,11.2,0,0,0,46.42,20.51Z" transform="translate(-0.44 -0.32)"/><path class="cls-2" d="M27.09,17.35a3.9,3.9,0,0,0-1.86,1.42C25.76,18.62,26.94,18.09,27.09,17.35Z" transform="translate(-0.44 -0.32)"/><path class="cls-3" d="M9.55,30.22l3.18,9.4,3.18-9.46c.16-.5.29-.85.37-1a1.36,1.36,0,0,1,.41-.53,1.26,1.26,0,0,1,.79-.23,1.36,1.36,0,0,1,1.16.66,1.19,1.19,0,0,1,.18.61,1.86,1.86,0,0,1-.06.45,3.37,3.37,0,0,1-.15.48c-.05.16-.11.32-.17.48L15.05,40.2c-.12.35-.24.69-.36,1a5.34,5.34,0,0,1-.42.83,1.91,1.91,0,0,1-.64.59,2,2,0,0,1-1,.23,1.93,1.93,0,0,1-1-.23,1.65,1.65,0,0,1-.64-.59,4.31,4.31,0,0,1-.43-.83c-.12-.32-.24-.65-.36-1L6.92,31.12c0-.16-.11-.33-.17-.49s-.11-.33-.16-.51a2.31,2.31,0,0,1-.06-.47,1.25,1.25,0,0,1,.39-.89,1.33,1.33,0,0,1,1-.4,1.17,1.17,0,0,1,1,.44A6,6,0,0,1,9.55,30.22Z" transform="translate(-0.44 -0.32)"/><path class="cls-4" d="M32.16,38.19H27.05a3.52,3.52,0,0,0,.36,1.56,2.38,2.38,0,0,0,2.2,1.37,3.26,3.26,0,0,0,.86-.11,2.8,2.8,0,0,0,.75-.34,6.94,6.94,0,0,0,.67-.51c.2-.17.47-.42.79-.72a.84.84,0,0,1,.57-.17,1,1,0,0,1,.66.21.82.82,0,0,1,.24.63,1.71,1.71,0,0,1-.27.82,3.37,3.37,0,0,1-.84.91,4.66,4.66,0,0,1-1.41.72,6,6,0,0,1-1.94.29,5.22,5.22,0,0,1-3.91-1.43,5.36,5.36,0,0,1-1.4-3.89,6.46,6.46,0,0,1,.35-2.15,4.73,4.73,0,0,1,1-1.7,4.31,4.31,0,0,1,1.63-1.08,5.83,5.83,0,0,1,2.14-.38,5.07,5.07,0,0,1,2.62.65,4.21,4.21,0,0,1,1.64,1.66,4.36,4.36,0,0,1,.55,2.09c0,.65-.19,1.08-.57,1.27A3.39,3.39,0,0,1,32.16,38.19ZM27.05,36.7h4.73a3.13,3.13,0,0,0-.72-2A2.18,2.18,0,0,0,29.41,34a2.08,2.08,0,0,0-1.6.67A3.33,3.33,0,0,0,27.05,36.7Z" transform="translate(-0.44 -0.32)"/><path class="cls-5" d="M36.5,41.26V30a1.78,1.78,0,0,1,.35-1.19,1.2,1.2,0,0,1,.95-.4,1.21,1.21,0,0,1,1,.4A1.71,1.71,0,0,1,39.11,30V41.26a1.71,1.71,0,0,1-.36,1.19,1.24,1.24,0,0,1-1,.4,1.2,1.2,0,0,1-.94-.41A1.75,1.75,0,0,1,36.5,41.26Z" transform="translate(-0.44 -0.32)"/><path class="cls-6" d="M51.58,37.54a6.28,6.28,0,0,1-.36,2.16,4.9,4.9,0,0,1-1.06,1.69,4.51,4.51,0,0,1-1.64,1.08,5.84,5.84,0,0,1-2.15.38,5.73,5.73,0,0,1-2.13-.38,4.73,4.73,0,0,1-2.69-2.78,6.14,6.14,0,0,1-.36-2.15,6.29,6.29,0,0,1,.36-2.17,4.81,4.81,0,0,1,1-1.68,4.66,4.66,0,0,1,1.65-1.07,5.81,5.81,0,0,1,2.13-.38,5.88,5.88,0,0,1,2.15.38,4.8,4.8,0,0,1,1.65,1.09,4.69,4.69,0,0,1,1,1.68A6.18,6.18,0,0,1,51.58,37.54Zm-2.62,0a3.89,3.89,0,0,0-.7-2.48A2.46,2.46,0,0,0,45,34.57a2.46,2.46,0,0,0-.9,1.17,4.75,4.75,0,0,0-.31,1.8,4.66,4.66,0,0,0,.31,1.79A2.55,2.55,0,0,0,45,40.5,2.46,2.46,0,0,0,48.26,40,3.91,3.91,0,0,0,49,37.54Z" transform="translate(-0.44 -0.32)"/><path class="cls-7" d="M15.5,30.22l3.17,9.4,3.18-9.46c.17-.5.29-.85.38-1a1.36,1.36,0,0,1,.41-.53,1.23,1.23,0,0,1,.78-.23,1.29,1.29,0,0,1,.67.18,1.33,1.33,0,0,1,.49.48,1.19,1.19,0,0,1,.18.61,1.86,1.86,0,0,1-.06.45,3.36,3.36,0,0,1-.14.48c-.06.16-.12.32-.17.48L21,40.2c-.12.35-.24.69-.36,1a4,4,0,0,1-.42.83,1.82,1.82,0,0,1-.64.59,1.91,1.91,0,0,1-1,.23,2,2,0,0,1-1-.23A1.73,1.73,0,0,1,17,42a4.29,4.29,0,0,1-.42-.83c-.12-.32-.25-.65-.37-1l-3.33-9.08-.18-.49a3.8,3.8,0,0,1-.15-.51,2.31,2.31,0,0,1-.06-.47,1.25,1.25,0,0,1,.39-.89,1.3,1.3,0,0,1,1-.4,1.16,1.16,0,0,1,1,.44A6,6,0,0,1,15.5,30.22Z" transform="translate(-0.44 -0.32)"/></svg>