<svg id="Layer_1" data-name="Layer 1" xmlns="http://www.w3.org/2000/svg" xmlns:xlink="http://www.w3.org/1999/xlink" viewBox="0 0 50 36.03"><defs><style>.cls-1{fill:none;}.cls-2{fill:url(#linear-gradient);}</style><linearGradient id="linear-gradient" x1="0.3" y1="19.55" x2="50" y2="19.55" gradientTransform="matrix(1, 0, 0, -1, 0, 52)" gradientUnits="userSpaceOnUse"><stop offset="0.1" stop-color="#a22523"/><stop offset="0.52" stop-color="#e20613"/><stop offset="0.66" stop-color="#c84317"/><stop offset="0.82" stop-color="#ac861b"/><stop offset="0.94" stop-color="#9ab01e"/><stop offset="1" stop-color="#93c01f"/></linearGradient></defs><title>bike</title><rect class="cls-1" y="3.14" width="32.89" height="32.89"/><path class="cls-2" d="M39.66,27.21a10.85,10.85,0,0,0-4.09.82l-1.74-3.38V19.27a.77.77,0,0,0-.52-.71L29.22,17a.76.76,0,1,0-.51,1.43l3.63,1.34v4.35h-15V22.65h1.85a.78.78,0,0,0,.76-.77.77.77,0,0,0-.76-.76H14.43a.78.78,0,0,0-.77.76.79.79,0,0,0,.77.77h1.38v2.1L14.32,28a9.62,9.62,0,0,0-3.68-.72A10.34,10.34,0,1,0,20.93,38.37h3.32a.76.76,0,0,0,.62-.31l8-11.62,1.28,2.41a10.13,10.13,0,0,0-4.86,8.7A10.34,10.34,0,1,0,39.66,27.21Zm-29,19.14a8.81,8.81,0,1,1,0-17.61,8.32,8.32,0,0,1,3,.57L9.92,37.24v0a.47.47,0,0,0-.05.26v.05a.45.45,0,0,0,.05.25v.06c0,.05,0,.05.05.1s0,.05.1.1v0c.06.05.16.1.21.15h.05a.4.4,0,0,0,.26.06h8.75A8.71,8.71,0,0,1,10.64,46.35Zm1.18-9.57L15,30a8.74,8.74,0,0,1,4.35,6.81Zm12,0h-3a10.43,10.43,0,0,0-5.23-8.24L17,25.62H31.52Zm15.77,9.57A8.8,8.8,0,0,1,34.9,30.12l4,7.79a.81.81,0,0,0,.67.4,1,1,0,0,0,.36-.1.75.75,0,0,0,.3-1l-4-7.78a9.47,9.47,0,0,1,3.38-.67,8.81,8.81,0,0,1,0,17.61Z" transform="translate(0 -16.97)"/></svg>