<svg id="Layer_1" data-name="Layer 1" xmlns="http://www.w3.org/2000/svg" xmlns:xlink="http://www.w3.org/1999/xlink" viewBox="0 0 49.21 49.21"><defs><style>.cls-1{fill:url(#linear-gradient);}.cls-2{fill:url(#linear-gradient-2);}</style><linearGradient id="linear-gradient" x1="0.48" y1="26.92" x2="49.68" y2="26.92" gradientTransform="matrix(1, 0, 0, -1, 0, 52)" gradientUnits="userSpaceOnUse"><stop offset="0.1" stop-color="#a22523"/><stop offset="0.52" stop-color="#e20613"/><stop offset="0.66" stop-color="#c84317"/><stop offset="0.82" stop-color="#ac861b"/><stop offset="0.94" stop-color="#9ab01e"/><stop offset="1" stop-color="#93c01f"/></linearGradient><linearGradient id="linear-gradient-2" x1="9.13" y1="26.92" x2="41.03" y2="26.92" xlink:href="#linear-gradient"/></defs><title>contact</title><path class="cls-1" d="M25,.48a24.6,24.6,0,0,0,0,49.2A24.83,24.83,0,0,0,49.68,25,24.66,24.66,0,0,0,25,.48Zm0,46.34A21.74,21.74,0,1,1,46.82,25,21.77,21.77,0,0,1,25,46.82Z" transform="translate(-0.48 -0.48)"/><path class="cls-2" d="M25,9.13A16,16,0,0,0,25,41a16.43,16.43,0,0,0,9.83-3.26,1.44,1.44,0,0,0-1.74-2.29A13.53,13.53,0,0,1,25,38.17,13.09,13.09,0,1,1,38.15,25v1.44a2.89,2.89,0,1,1-5.77,0v-7.2a1.44,1.44,0,1,0-2.88,0v.09A7.44,7.44,0,0,0,25,17.77a7.21,7.21,0,0,0,0,14.42,7.43,7.43,0,0,0,5.55-2.48A5.76,5.76,0,0,0,41,26.42V25A16,16,0,0,0,25,9.13Zm0,20.2a4.35,4.35,0,0,1,0-8.69A4.5,4.5,0,0,1,29.5,25,4.5,4.5,0,0,1,25,29.33Z" transform="translate(-0.48 -0.48)"/></svg>