<?xml version="1.0" encoding="utf-8"?>
<!-- Generator: Adobe Illustrator 24.1.0, SVG Export Plug-In . SVG Version: 6.00 Build 0)  -->
<svg version="1.1" id="Layer_1" xmlns="http://www.w3.org/2000/svg" xmlns:xlink="http://www.w3.org/1999/xlink" x="0px" y="0px"
	 viewBox="0 0 49.2 49.2" style="enable-background:new 0 0 49.2 49.2;" xml:space="preserve">
<style type="text/css">
	.st0{fill:url(#SVGID_1_);}
	.st1{fill:url(#SVGID_2_);}
</style>
<linearGradient id="SVGID_1_" gradientUnits="userSpaceOnUse" x1="12.7102" y1="765" x2="37.2898" y2="765" gradientTransform="matrix(1 0 0 1 -0.43 -740.43)">
	<stop  offset="0.1" style="stop-color:#A22523"/>
	<stop  offset="0.52" style="stop-color:#E20613"/>
	<stop  offset="0.66" style="stop-color:#C84317"/>
	<stop  offset="0.82" style="stop-color:#AC861B"/>
	<stop  offset="0.94" style="stop-color:#9AB01E"/>
	<stop  offset="1" style="stop-color:#93C01F"/>
</linearGradient>
<path class="st0" d="M35.3,26.1H13.8c-0.9,0-1.5-0.7-1.5-1.5c0-0.9,0.7-1.5,1.5-1.5h21.5c0.9,0,1.5,0.7,1.5,1.5
	C36.9,25.4,36.2,26.1,35.3,26.1z"/>
<linearGradient id="SVGID_2_" gradientUnits="userSpaceOnUse" x1="23.46" y1="765.0001" x2="26.54" y2="765.0001" gradientTransform="matrix(1 0 0 1 -0.43 -740.43)">
	<stop  offset="0.1" style="stop-color:#A22523"/>
	<stop  offset="0.52" style="stop-color:#E20613"/>
	<stop  offset="0.66" style="stop-color:#C84317"/>
	<stop  offset="0.82" style="stop-color:#AC861B"/>
	<stop  offset="0.94" style="stop-color:#9AB01E"/>
	<stop  offset="1" style="stop-color:#93C01F"/>
</linearGradient>
<path class="st1" d="M24.6,36.9c-0.8,0-1.5-0.7-1.5-1.5V13.8c0-0.9,0.7-1.5,1.5-1.5c0.9,0,1.5,0.7,1.5,1.5v21.5
	C26.1,36.2,25.4,36.9,24.6,36.9z"/>
</svg>
