<svg id="Layer_1" data-name="Layer 1" xmlns="http://www.w3.org/2000/svg" xmlns:xlink="http://www.w3.org/1999/xlink" viewBox="0 0 42.17 49.26"><defs><style>.cls-1{fill:url(#linear-gradient);}.cls-2{fill:url(#linear-gradient-2);}</style><linearGradient id="linear-gradient" x1="13.29" y1="39.92" x2="36.73" y2="39.92" gradientTransform="matrix(1, 0, 0, -1, 0, 52)" gradientUnits="userSpaceOnUse"><stop offset="0.1" stop-color="#a22523"/><stop offset="0.52" stop-color="#e20613"/><stop offset="0.66" stop-color="#c84317"/><stop offset="0.82" stop-color="#ac861b"/><stop offset="0.94" stop-color="#9ab01e"/><stop offset="1" stop-color="#93c01f"/></linearGradient><linearGradient id="linear-gradient-2" x1="3.92" y1="12.97" x2="46.08" y2="12.97" xlink:href="#linear-gradient"/></defs><title>espace</title><path d="M29,49.32l-.61.09A6,6,0,0,1,29,49.32Z" transform="translate(-3.92 -0.37)"/><path d="M29.46,49.23l-.29.05Z" transform="translate(-3.92 -0.37)"/><path d="M27.8,49.47l-.72.07C27.32,49.53,27.56,49.5,27.8,49.47Z" transform="translate(-3.92 -0.37)"/><path d="M28.28,49.41l-.35,0Z" transform="translate(-3.92 -0.37)"/><path d="M30.14,49.09l-.26.06Z" transform="translate(-3.92 -0.37)"/><path d="M31.8,48.68l-.21.06Z" transform="translate(-3.92 -0.37)"/><path d="M31.29,48.81l-.23.06A.77.77,0,0,0,31.29,48.81Z" transform="translate(-3.92 -0.37)"/><path d="M30.64,49l-.24.06A.94.94,0,0,1,30.64,49Z" transform="translate(-3.92 -0.37)"/><path d="M27.07,49.55l-.39,0Z" transform="translate(-3.92 -0.37)"/><path d="M26.63,49.57l-.77,0Z" transform="translate(-3.92 -0.37)"/><path d="M25.85,49.61h0Z" transform="translate(-3.92 -0.37)"/><path class="cls-1" d="M25,23.79a11.71,11.71,0,1,1,11.72-11.7A11.73,11.73,0,0,1,25,23.79ZM25,3.88a8.21,8.21,0,1,0,8.2,8.21A8.22,8.22,0,0,0,25,3.88Z" transform="translate(-3.92 -0.37)"/><path class="cls-2" d="M44.34,49.57H5.67a1.76,1.76,0,0,1-1.75-1.75V39.61A11.13,11.13,0,0,1,15,28.49H35A11.13,11.13,0,0,1,46.08,39.61v8.21A1.74,1.74,0,0,1,44.34,49.57ZM7.43,46.06H42.58V39.61A7.63,7.63,0,0,0,35,32H15a7.63,7.63,0,0,0-7.61,7.61Z" transform="translate(-3.92 -0.37)"/></svg>