<svg id="Layer_1" data-name="Layer 1" xmlns="http://www.w3.org/2000/svg" xmlns:xlink="http://www.w3.org/1999/xlink" viewBox="0 0 49.27 49.27"><defs><style>.cls-1{fill:url(#linear-gradient);}</style><linearGradient id="linear-gradient" x1="0.37" y1="27" x2="49.63" y2="27" gradientTransform="matrix(1, 0, 0, -1, 0, 52)" gradientUnits="userSpaceOnUse"><stop offset="0.1" stop-color="#a22523"/><stop offset="0.52" stop-color="#e20613"/><stop offset="0.66" stop-color="#c84317"/><stop offset="0.82" stop-color="#ac861b"/><stop offset="0.94" stop-color="#9ab01e"/><stop offset="1" stop-color="#93c01f"/></linearGradient></defs><title>facebook</title><path d="M29,49.32l-.61.09A6,6,0,0,1,29,49.32Z" transform="translate(-0.37 -0.37)"/><path d="M29.46,49.23l-.29.05Z" transform="translate(-0.37 -0.37)"/><path d="M27.8,49.47l-.72.07C27.32,49.53,27.56,49.5,27.8,49.47Z" transform="translate(-0.37 -0.37)"/><path d="M28.28,49.41l-.35,0Z" transform="translate(-0.37 -0.37)"/><path d="M30.14,49.09l-.26.06Z" transform="translate(-0.37 -0.37)"/><path d="M31.8,48.68l-.21.06Z" transform="translate(-0.37 -0.37)"/><path d="M31.29,48.81l-.23.06A.77.77,0,0,0,31.29,48.81Z" transform="translate(-0.37 -0.37)"/><path d="M30.64,49l-.24.06A.94.94,0,0,1,30.64,49Z" transform="translate(-0.37 -0.37)"/><path d="M27.07,49.55l-.39,0Z" transform="translate(-0.37 -0.37)"/><path class="cls-1" d="M49.63,25A24.63,24.63,0,1,0,25,49.63h.43V30.46H20.14V24.29h5.29V19.75c0-5.27,3.22-8.13,7.91-8.13a42.47,42.47,0,0,1,4.75.24v5.5H34.85c-2.55,0-3.05,1.21-3.05,3v3.93h6.11l-.8,6.17H31.8V48.68A24.63,24.63,0,0,0,49.63,25Z" transform="translate(-0.37 -0.37)"/><path d="M26.63,49.57l-.77,0Z" transform="translate(-0.37 -0.37)"/><path d="M25.85,49.61h0Z" transform="translate(-0.37 -0.37)"/></svg>