<svg id="Layer_1" data-name="Layer 1" xmlns="http://www.w3.org/2000/svg" xmlns:xlink="http://www.w3.org/1999/xlink" viewBox="0 0 49.13 49.17"><defs><style>.cls-1{fill:url(#linear-gradient);}.cls-2{fill:url(#linear-gradient-2);}.cls-3{fill:url(#linear-gradient-3);}</style><linearGradient id="linear-gradient" x1="20.28" y1="26.98" x2="29.68" y2="26.98" gradientTransform="matrix(1, 0, 0, -1, 0, 52)" gradientUnits="userSpaceOnUse"><stop offset="0.1" stop-color="#a22523"/><stop offset="0.52" stop-color="#e20613"/><stop offset="0.66" stop-color="#c84317"/><stop offset="0.82" stop-color="#ac861b"/><stop offset="0.94" stop-color="#9ab01e"/><stop offset="1" stop-color="#93c01f"/></linearGradient><linearGradient id="linear-gradient-2" x1="13.41" y1="26.98" x2="36.56" y2="26.98" xlink:href="#linear-gradient"/><linearGradient id="linear-gradient-3" x1="0.42" y1="26.98" x2="49.55" y2="26.98" xlink:href="#linear-gradient"/></defs><title>instagramsvg</title><path d="M29,49.32l-.61.09A6,6,0,0,1,29,49.32Z" transform="translate(-0.42 -0.45)"/><path d="M29.46,49.23l-.29.05Z" transform="translate(-0.42 -0.45)"/><path d="M27.8,49.47l-.72.07C27.32,49.53,27.56,49.5,27.8,49.47Z" transform="translate(-0.42 -0.45)"/><path d="M28.28,49.41l-.35,0Z" transform="translate(-0.42 -0.45)"/><path d="M30.14,49.09l-.26.06Z" transform="translate(-0.42 -0.45)"/><path d="M31.8,48.68l-.21.06Z" transform="translate(-0.42 -0.45)"/><path d="M31.29,48.81l-.23.06A.77.77,0,0,0,31.29,48.81Z" transform="translate(-0.42 -0.45)"/><path d="M30.64,49l-.24.06A.94.94,0,0,1,30.64,49Z" transform="translate(-0.42 -0.45)"/><path d="M27.07,49.55l-.39,0Z" transform="translate(-0.42 -0.45)"/><path d="M26.63,49.57l-.77,0Z" transform="translate(-0.42 -0.45)"/><path d="M25.85,49.61h0Z" transform="translate(-0.42 -0.45)"/><path class="cls-1" d="M29.68,25a4.7,4.7,0,1,1-4.7-4.7A4.69,4.69,0,0,1,29.68,25Z" transform="translate(-0.42 -0.45)"/><path class="cls-2" d="M36,16.7A4.73,4.73,0,0,0,33.3,14a8.11,8.11,0,0,0-2.62-.49c-1.48-.07-1.94-.09-5.7-.09s-4.21,0-5.7.09a8.11,8.11,0,0,0-2.62.49A4.73,4.73,0,0,0,14,16.7a7.91,7.91,0,0,0-.48,2.62c-.07,1.48-.09,1.93-.09,5.7s0,4.21.09,5.7A7.65,7.65,0,0,0,14,33.34,4.73,4.73,0,0,0,16.66,36a7.91,7.91,0,0,0,2.62.48c1.49.07,1.93.09,5.7.09s4.22,0,5.7-.09A7.65,7.65,0,0,0,33.3,36,4.66,4.66,0,0,0,36,33.34a8.11,8.11,0,0,0,.49-2.62c.07-1.49.09-1.94.09-5.7s0-4.22-.09-5.7A8.11,8.11,0,0,0,36,16.7ZM25,32.26A7.25,7.25,0,1,1,32.23,25,7.24,7.24,0,0,1,25,32.26Zm7.54-13.08a1.69,1.69,0,1,1,1.68-1.69A1.69,1.69,0,0,1,32.52,19.18Z" transform="translate(-0.42 -0.45)"/><path class="cls-3" d="M25,.45A24.57,24.57,0,1,0,49.55,25,24.56,24.56,0,0,0,25,.45ZM39,30.83a10.18,10.18,0,0,1-.65,3.43,7.21,7.21,0,0,1-4.13,4.13A10.58,10.58,0,0,1,30.8,39c-1.51.07-2,.08-5.82.08s-4.31,0-5.81-.08a10.7,10.7,0,0,1-3.43-.65,7.4,7.4,0,0,1-4.13-4.13A10.59,10.59,0,0,1,11,30.83c-.07-1.5-.08-2-.08-5.81s0-4.31.08-5.82a10.69,10.69,0,0,1,.65-3.42,7,7,0,0,1,1.64-2.5,6.78,6.78,0,0,1,2.49-1.63A10.13,10.13,0,0,1,19.17,11c1.5-.07,2-.09,5.81-.09s4.31,0,5.82.09a10.17,10.17,0,0,1,3.42.65,7.24,7.24,0,0,1,4.13,4.13A10.12,10.12,0,0,1,39,19.2c.07,1.51.09,2,.09,5.82S39.07,29.33,39,30.83Z" transform="translate(-0.42 -0.45)"/></svg>