<svg id="Layer_1" data-name="Layer 1" xmlns="http://www.w3.org/2000/svg" xmlns:xlink="http://www.w3.org/1999/xlink" viewBox="0 0 48.96 49.1"><defs><style>.cls-1{fill:url(#linear-gradient);}</style><linearGradient id="linear-gradient" x1="0.52" y1="27" x2="49.48" y2="27" gradientTransform="matrix(1, 0, 0, -1, 0, 52)" gradientUnits="userSpaceOnUse"><stop offset="0.1" stop-color="#a22523"/><stop offset="0.52" stop-color="#e20613"/><stop offset="0.66" stop-color="#c84317"/><stop offset="0.82" stop-color="#ac861b"/><stop offset="0.94" stop-color="#9ab01e"/><stop offset="1" stop-color="#93c01f"/></linearGradient></defs><title>linkedin</title><path d="M29,49.32l-.61.09A6,6,0,0,1,29,49.32Z" transform="translate(-0.52 -0.52)"/><path d="M29.46,49.23l-.29.05Z" transform="translate(-0.52 -0.52)"/><path d="M27.8,49.47l-.72.07C27.32,49.53,27.56,49.5,27.8,49.47Z" transform="translate(-0.52 -0.52)"/><path d="M28.28,49.41l-.35,0Z" transform="translate(-0.52 -0.52)"/><path d="M30.14,49.09l-.26.06Z" transform="translate(-0.52 -0.52)"/><path d="M31.8,48.68l-.21.06Z" transform="translate(-0.52 -0.52)"/><path d="M31.29,48.81l-.23.06A.77.77,0,0,0,31.29,48.81Z" transform="translate(-0.52 -0.52)"/><path d="M30.64,49l-.24.06A.94.94,0,0,1,30.64,49Z" transform="translate(-0.52 -0.52)"/><path d="M27.07,49.55l-.39,0Z" transform="translate(-0.52 -0.52)"/><path d="M26.63,49.57l-.77,0Z" transform="translate(-0.52 -0.52)"/><path d="M25.85,49.61h0Z" transform="translate(-0.52 -0.52)"/><path class="cls-1" d="M25,.52A24.48,24.48,0,1,0,49.48,25,24.48,24.48,0,0,0,25,.52Zm-7.11,37h-6V19.59h6Zm-3-20.39h0a3.11,3.11,0,1,1,.08-6.2,3.11,3.11,0,1,1,0,6.2ZM39.38,37.53h-6V27.94c0-2.41-.86-4.06-3-4.06a3.27,3.27,0,0,0-3.06,2.18,4.24,4.24,0,0,0-.2,1.45v10h-6s.08-16.26,0-17.94h6v2.54a5.94,5.94,0,0,1,5.38-3c3.92,0,6.86,2.56,6.86,8.07V37.53Z" transform="translate(-0.52 -0.52)"/></svg>