<svg id="Layer_1" data-name="Layer 1" xmlns="http://www.w3.org/2000/svg" xmlns:xlink="http://www.w3.org/1999/xlink" viewBox="0 0 49.15 49.15"><defs><style>.cls-1{fill:url(#linear-gradient);}.cls-2{fill:url(#linear-gradient-2);}.cls-3{fill:url(#linear-gradient-3);}</style><linearGradient id="linear-gradient" x1="0.43" y1="27" x2="49.57" y2="27" gradientTransform="matrix(1, 0, 0, -1, 0, 52)" gradientUnits="userSpaceOnUse"><stop offset="0.1" stop-color="#a22523"/><stop offset="0.52" stop-color="#e20613"/><stop offset="0.66" stop-color="#c84317"/><stop offset="0.82" stop-color="#ac861b"/><stop offset="0.94" stop-color="#9ab01e"/><stop offset="1" stop-color="#93c01f"/></linearGradient><linearGradient id="linear-gradient-2" x1="12.71" x2="37.29" xlink:href="#linear-gradient"/><linearGradient id="linear-gradient-3" x1="23.46" x2="26.54" xlink:href="#linear-gradient"/></defs><title>plus</title><path class="cls-1" d="M25,49.57A24.57,24.57,0,1,1,49.57,25,24.6,24.6,0,0,1,25,49.57ZM25,3.5A21.5,21.5,0,1,0,46.5,25,21.52,21.52,0,0,0,25,3.5Z" transform="translate(-0.43 -0.43)"/><path class="cls-2" d="M35.75,26.54H14.25a1.54,1.54,0,0,1,0-3.08h21.5a1.54,1.54,0,0,1,0,3.08Z" transform="translate(-0.43 -0.43)"/><path class="cls-3" d="M25,37.29a1.55,1.55,0,0,1-1.54-1.54V14.25a1.54,1.54,0,0,1,3.08,0v21.5A1.55,1.55,0,0,1,25,37.29Z" transform="translate(-0.43 -0.43)"/></svg>