<svg id="Layer_1" data-name="Layer 1" xmlns="http://www.w3.org/2000/svg" xmlns:xlink="http://www.w3.org/1999/xlink" viewBox="0 0 48.97 48.97"><defs><style>.cls-1{fill:url(#linear-gradient);}</style><linearGradient id="linear-gradient" x1="0.4" y1="26.89" x2="49.38" y2="26.89" gradientTransform="matrix(1, 0, 0, -1, 0, 52)" gradientUnits="userSpaceOnUse"><stop offset="0.1" stop-color="#a22523"/><stop offset="0.52" stop-color="#e20613"/><stop offset="0.66" stop-color="#c84317"/><stop offset="0.82" stop-color="#ac861b"/><stop offset="0.94" stop-color="#9ab01e"/><stop offset="1" stop-color="#93c01f"/></linearGradient></defs><title>twitter</title><path class="cls-1" d="M24.89.62A24.49,24.49,0,1,0,49.38,25.11,24.49,24.49,0,0,0,24.89.62Zm11.18,19.1c0,.24,0,.48,0,.72,0,7.43-5.65,16-16,16h0a15.87,15.87,0,0,1-8.62-2.53,11.9,11.9,0,0,0,1.34.08,11.26,11.26,0,0,0,7-2.41,5.65,5.65,0,0,1-5.25-3.91,5.27,5.27,0,0,0,1,.11,5.46,5.46,0,0,0,1.48-.2,5.61,5.61,0,0,1-4.5-5.51V22a5.45,5.45,0,0,0,2.54.7A5.6,5.6,0,0,1,12.63,18a5.48,5.48,0,0,1,.76-2.82A15.93,15.93,0,0,0,25,21.06a5.4,5.4,0,0,1-.15-1.28,5.62,5.62,0,0,1,9.73-3.84,11,11,0,0,0,3.57-1.37,5.66,5.66,0,0,1-2.47,3.11,11.13,11.13,0,0,0,3.22-.89A11.36,11.36,0,0,1,36.07,19.72Z" transform="translate(-0.4 -0.62)"/></svg>