<svg id="Layer_1" data-name="Layer 1" xmlns="http://www.w3.org/2000/svg" xmlns:xlink="http://www.w3.org/1999/xlink" viewBox="0 0 50 50"><defs><style>.cls-1{fill:url(#linear-gradient);}.cls-2{fill:url(#linear-gradient-2);}.cls-3{fill:none;}</style><linearGradient id="linear-gradient" x1="3.52" y1="26.9" x2="46.68" y2="26.9" gradientTransform="matrix(1, 0, 0, -1, 0, 52)" gradientUnits="userSpaceOnUse"><stop offset="0.1" stop-color="#a22523"/><stop offset="0.52" stop-color="#e20613"/><stop offset="0.66" stop-color="#c84317"/><stop offset="0.82" stop-color="#ac861b"/><stop offset="0.94" stop-color="#9ab01e"/><stop offset="1" stop-color="#93c01f"/></linearGradient><linearGradient id="linear-gradient-2" x1="0.2" y1="26.9" x2="50" y2="26.9" xlink:href="#linear-gradient"/></defs><title>wheel</title><g id="outline"><path class="cls-1" d="M25.1,3.52A21.58,21.58,0,1,0,46.68,25.1,21.58,21.58,0,0,0,25.1,3.52ZM37.25,9.33,27.48,21l5.2-14.28A19.88,19.88,0,0,1,37.25,9.33ZM25.93,5.2a19.57,19.57,0,0,1,5.2.91l-5.2,14.28Zm-1.66,0V20.39L19.07,6.11A19.5,19.5,0,0,1,24.27,5.2ZM17.51,6.68,22.71,21,13,9.33A19.81,19.81,0,0,1,17.51,6.68Zm-5.84,3.71L21.43,22,8.29,14.43A20.1,20.1,0,0,1,11.67,10.39ZM7.45,15.87l13.15,7.6-15-2.65a19.87,19.87,0,0,1,1.81-5ZM5.18,25.1a21.15,21.15,0,0,1,.17-2.64l15,2.64-15,2.63A21,21,0,0,1,5.18,25.1Zm.46,4.27,15-2.63L7.45,34.33A19.94,19.94,0,0,1,5.64,29.37Zm2.65,6.39,13.14-7.59L11.67,39.8a19.56,19.56,0,0,1-3.38-4ZM13,40.87l9.76-11.63-5.2,14.28A20.18,20.18,0,0,1,13,40.87ZM24.27,45a19.5,19.5,0,0,1-5.2-.91l5.2-14.28Zm-.83-19.9a1.66,1.66,0,1,1,1.66,1.66A1.66,1.66,0,0,1,23.44,25.1ZM25.93,45V29.81l5.2,14.28A19.57,19.57,0,0,1,25.93,45Zm6.75-1.48-5.2-14.28,9.77,11.63A20.25,20.25,0,0,1,32.68,43.52Zm5.84-3.72L28.76,28.17l13.15,7.59A20.2,20.2,0,0,1,38.52,39.8Zm4.23-5.48L29.59,26.73l15,2.63a19.25,19.25,0,0,1-1.8,5ZM45,25.1a19.26,19.26,0,0,1-.18,2.63l-15-2.63,15-2.64A19.41,19.41,0,0,1,45,25.1Zm-.47-4.28-15,2.64,13.16-7.6A19.66,19.66,0,0,1,44.55,20.82ZM28.76,22l9.76-11.64a20.83,20.83,0,0,1,3.4,4Z" transform="translate(0)"/><path class="cls-2" d="M25.1.2A24.9,24.9,0,1,0,50,25.1,24.9,24.9,0,0,0,25.1.2Zm0,48.14A23.24,23.24,0,1,1,48.34,25.1,23.24,23.24,0,0,1,25.1,48.34Z" transform="translate(0)"/></g><rect class="cls-3" width="50" height="50"/></svg>